<?xml version="1.0" standalone="no"?>
<!DOCTYPE svg PUBLIC "-//W3C//DTD SVG 20010904//EN"
 "http://www.w3.org/TR/2001/REC-SVG-20010904/DTD/svg10.dtd">
<svg version="1.0" xmlns="http://www.w3.org/2000/svg"
 width="1280.000000pt" height="1280.000000pt" viewBox="0 0 1280.000000 1280.000000"
 preserveAspectRatio="xMidYMid meet">
<g transform="translate(0.000000,1280.000000) scale(0.100000,-0.100000)"
fill="#000000" stroke="none">
<path d="M6588 8314 c-308 -55 -666 -253 -883 -486 -192 -206 -285 -433 -272
-658 8 -118 34 -263 53 -287 13 -17 15 -17 32 4 15 17 20 45 25 130 30 536
326 951 790 1106 141 48 237 62 422 62 148 0 180 -3 250 -23 287 -83 482 -278
556 -557 31 -114 31 -336 1 -448 -55 -201 -193 -373 -372 -461 -135 -66 -228
-88 -378 -90 -112 -1 -125 1 -138 18 -8 11 -14 28 -14 38 0 21 64 193 240 649
66 170 120 322 120 337 0 48 -12 52 -175 52 -177 0 -161 9 -229 -128 -90 -179
-313 -750 -501 -1277 -266 -751 -372 -969 -572 -1176 -145 -150 -259 -213
-433 -240 -144 -22 -262 10 -331 88 -75 86 -116 237 -104 378 26 297 133 549
314 739 100 104 180 152 381 225 175 64 200 76 200 92 0 18 -62 8 -186 -32
-462 -148 -680 -294 -829 -555 -131 -229 -131 -596 0 -799 64 -100 174 -180
290 -211 65 -18 232 -17 315 0 217 46 454 191 689 420 279 273 450 540 601
941 33 88 79 198 103 245 l42 85 50 -3 c278 -16 471 21 698 134 530 262 752
767 525 1197 -45 85 -209 250 -305 307 -222 130 -498 201 -774 199 -68 0 -158
-7 -201 -15z"/>
</g>
</svg>
